<?xml version="1.0"?>
<svg xmlns="http://www.w3.org/2000/svg" viewBox="0 0 50 50">
    <path style="text-indent:0;text-align:start;line-height:normal;text-transform:none;block-progression:tb;-inkscape-font-specification:Sans" d="M 19 1 C 17.707983 1 16.605718 1.8442551 16.1875 3 L 11.21875 3 A 1.0001 1.0001 0 0 0 10.90625 2.96875 A 1.0001 1.0001 0 0 0 10.8125 3 L 5 3 C 3.3550302 3 2 4.3550302 2 6 L 2 41 C 2 42.64497 3.3550302 44 5 44 L 23 44 C 23 45.64497 24.35503 47 26 47 L 44 47 C 45.64497 47 47 45.64497 47 44 L 47 21 C 47 19.35503 45.64497 18 44 18 L 36 18 L 36 6 C 36 4.3550302 34.64497 3 33 3 L 21.8125 3 C 21.394282 1.8442551 20.292017 1 19 1 z M 19 3 C 19.498912 3 19.883257 3.3434508 19.96875 3.8125 A 1.001098 1.001098 0 0 0 19.96875 4.1875 C 19.883257 4.6565492 19.498912 5 19 5 C 18.467664 5 18.045439 4.6115216 18 4.09375 A 1.0001 1.0001 0 0 0 18 4 C 18 3.4358709 18.435871 3 19 3 z M 5 5 L 10 5 L 10 8 C 10 9.6449698 11.35503 11 13 11 L 25 11 C 26.64497 11 28 9.6449698 28 8 L 28 5 L 33 5 C 33.56503 5 34 5.4349698 34 6 L 34 18 L 26 18 C 24.35503 18 23 19.35503 23 21 L 23 42 L 5 42 C 4.4349698 42 4 41.56503 4 41 L 4 6 C 4 5.4349698 4.4349698 5 5 5 z M 12 5 L 16.1875 5 C 16.605718 6.1557449 17.707983 7 19 7 C 20.292017 7 21.394282 6.1557449 21.8125 5 L 26 5 L 26 8 C 26 8.5650302 25.56503 9 25 9 L 13 9 C 12.43497 9 12 8.5650302 12 8 L 12 5 z M 13 15 L 13 21 L 11 21 L 11 18 L 9 18 L 9 21 L 7 21 L 7 23 L 21 23 L 21 21 L 19 21 L 19 17 L 17 17 L 17 21 L 15 21 L 15 15 L 13 15 z M 26 20 L 34.8125 20 L 35.21875 20 L 44 20 C 44.56503 20 45 20.43497 45 21 L 45 44 C 45 44.56503 44.56503 45 44 45 L 26 45 C 25.43497 45 25 44.56503 25 44 L 25 43.1875 A 1.0001 1.0001 0 0 0 25 42.78125 L 25 21 C 25 20.43497 25.43497 20 26 20 z M 27.8125 22 A 1.0001 1.0001 0 0 0 27 23 L 27 27 A 1.0001 1.0001 0 0 0 28 28 L 42 28 A 1.0001 1.0001 0 0 0 43 27 L 43 23 A 1.0001 1.0001 0 0 0 42 22 L 28 22 A 1.0001 1.0001 0 0 0 27.90625 22 A 1.0001 1.0001 0 0 0 27.8125 22 z M 29 24 L 41 24 L 41 26 L 29 26 L 29 24 z M 13 27 C 9.698136 27 7 29.698136 7 33 C 7 36.301864 9.698136 39 13 39 C 16.301864 39 19 36.301864 19 33 C 19 29.698136 16.301864 27 13 27 z M 13 29 L 13 33 L 17 33 C 17 35.220984 15.220984 37 13 37 C 10.779016 37 9 35.220984 9 33 C 9 30.779016 10.779016 29 13 29 z M 28 30 C 27.448 30 27 30.448 27 31 L 27 32 C 27 32.552 27.448 33 28 33 L 30 33 C 30.552 33 31 32.552 31 32 L 31 31 C 31 30.448 30.552 30 30 30 L 28 30 z M 34 30 C 33.448 30 33 30.448 33 31 L 33 32 C 33 32.552 33.448 33 34 33 L 36 33 C 36.552 33 37 32.552 37 32 L 37 31 C 37 30.448 36.552 30 36 30 L 34 30 z M 40 30 C 39.448 30 39 30.448 39 31 L 39 32 C 39 32.552 39.448 33 40 33 L 42 33 C 42.552 33 43 32.552 43 32 L 43 31 C 43 30.448 42.552 30 42 30 L 40 30 z M 28 35 C 27.448 35 27 35.448 27 36 L 27 37 C 27 37.552 27.448 38 28 38 L 30 38 C 30.552 38 31 37.552 31 37 L 31 36 C 31 35.448 30.552 35 30 35 L 28 35 z M 34 35 C 33.448 35 33 35.448 33 36 L 33 37 C 33 37.552 33.448 38 34 38 L 36 38 C 36.552 38 37 37.552 37 37 L 37 36 C 37 35.448 36.552 35 36 35 L 34 35 z M 40 35 C 39.448 35 39 35.448 39 36 L 39 37 C 39 37.552 39.448 38 40 38 L 42 38 C 42.552 38 43 37.552 43 37 L 43 36 C 43 35.448 42.552 35 42 35 L 40 35 z M 28 40 C 27.448 40 27 40.448 27 41 L 27 42 C 27 42.552 27.448 43 28 43 L 30 43 C 30.552 43 31 42.552 31 42 L 31 41 C 31 40.448 30.552 40 30 40 L 28 40 z M 34 40 C 33.448 40 33 40.448 33 41 L 33 42 C 33 42.552 33.448 43 34 43 L 36 43 C 36.552 43 37 42.552 37 42 L 37 41 C 37 40.448 36.552 40 36 40 L 34 40 z M 40 40 C 39.448 40 39 40.448 39 41 L 39 42 C 39 42.552 39.448 43 40 43 L 42 43 C 42.552 43 43 42.552 43 42 L 43 41 C 43 40.448 42.552 40 42 40 L 40 40 z"/>
</svg>
